<svg width="32" height="32" viewBox="0 0 32 32" fill="none" xmlns="http://www.w3.org/2000/svg">
<g clip-path="url(#clip0_229_810)">
<path d="M32 0H0V32H32V0Z" fill="black"/>
<path d="M10 27L10 25.7718L6.25805 25.7718L6.25805 21.428L5.25652 21.2782L5.25652 25.7718L2.02914 25.7718L2.02913 21L1 21L1 27L10 27Z" fill="white"/>
<path d="M12 25.9611L12 27.0389L15.3841 27.0389L15.3841 30L16.6159 30L16.6159 27.0389L20 27.0389L20 25.9611L16.6159 25.9611L16.6159 23L15.3841 23L15.3841 25.9611L12 25.9611Z" fill="white"/>
<path d="M31 27L31 21.1411L29.9706 21L29.9706 25.8262L27.0009 25.8262L27.0009 21.2658L26.011 21.2658L26.011 25.8262L23.0274 25.8262L23.0274 21L22 21L22 27L31 27Z" fill="white"/>
</g>
<defs>
<clipPath id="clip0_229_810">
<rect width="32" height="32" fill="white"/>
</clipPath>
</defs>
</svg>
